<svg width="40" height="40" viewBox="0 0 40 40" fill="none" xmlns="http://www.w3.org/2000/svg">
<path d="M16.975 38.1498C8.26669 36.5915 1.66669 29.0748 1.66669 19.9998C1.66669 9.91651 9.91669 1.6665 20 1.6665C30.0834 1.6665 38.3334 9.91651 38.3334 19.9998C38.3334 29.0748 31.7334 36.5915 23.025 38.1498L22.0167 37.3249H17.9834L16.975 38.1498Z" fill="url(#paint0_linear_2882_11267)"/>
<path d="M27.15 25.1331L27.975 19.9997H23.1167V16.4247C23.1167 14.9581 23.6667 13.8581 25.8667 13.8581H28.25V9.18307C26.9667 8.99974 25.5 8.81641 24.2167 8.81641C20 8.81641 17.0667 11.3831 17.0667 15.9664V19.9997H12.4833V25.1331H17.0667V38.0581C18.075 38.2414 19.0833 38.3331 20.0917 38.3331C21.1 38.3331 22.1083 38.2414 23.1167 38.0581V25.1331H27.15Z" fill="white"/>
<defs>
<linearGradient id="paint0_linear_2882_11267" x1="20.0009" y1="37.058" x2="20.0009" y2="1.65975" gradientUnits="userSpaceOnUse">
<stop stop-color="#0062E0"/>
<stop offset="1" stop-color="#19AFFF"/>
</linearGradient>
</defs>
</svg>
