<svg width="16" height="16" viewBox="0 0 16 16" fill="none" xmlns="http://www.w3.org/2000/svg">
<path fill-rule="evenodd" clip-rule="evenodd" d="M14.5255 9.37128C14.5482 9.26289 14.5682 9.15354 14.5855 9.04328C14.6389 8.70338 14.6667 8.35495 14.6667 8.00004C14.6667 7.64513 14.6389 7.2967 14.5855 6.9568C14.5682 6.84655 14.5482 6.73719 14.5255 6.62881C14.5026 6.51934 14.477 6.41085 14.4489 6.30343L13.8234 6.40171L13.9269 7.0603C13.975 7.36609 14 7.67992 14 8.00004C14 8.32017 13.975 8.63399 13.9269 8.93979L13.8234 9.59837L14.4489 9.69666C14.477 9.58923 14.5026 9.48075 14.5255 9.37128ZM13.7592 11.3602L13.2471 10.9875L12.8548 11.5265C12.4843 12.0357 12.0356 12.4844 11.5265 12.8549L10.9875 13.2472L11.3601 13.7592C11.4565 13.7029 11.5512 13.6443 11.6444 13.5833C11.7375 13.5224 11.829 13.4593 11.9188 13.3939C12.4842 12.9824 12.9824 12.4842 13.3939 11.9188C13.4592 11.829 13.5224 11.7375 13.5833 11.6444C13.6442 11.5513 13.7029 11.4565 13.7592 11.3602ZM9.69662 14.4489L9.59833 13.8235L8.93975 13.927C8.63396 13.975 8.32013 14 8 14C7.67988 14 7.36605 13.975 7.06026 13.927L6.40168 13.8235L6.30339 14.4489C6.41081 14.4771 6.5193 14.5027 6.62877 14.5255C6.73715 14.5482 6.84651 14.5682 6.95676 14.5856C7.29666 14.639 7.64509 14.6667 8 14.6667C8.35491 14.6667 8.70334 14.639 9.04325 14.5856C9.1535 14.5682 9.26285 14.5482 9.37124 14.5255C9.48071 14.5027 9.58919 14.4771 9.69662 14.4489ZM4.63986 13.7592L5.01253 13.2472L4.47351 12.8549C3.96439 12.4844 3.51569 12.0357 3.14516 11.5265L2.75287 10.9875L2.24081 11.3602C2.29712 11.4565 2.35578 11.5513 2.41671 11.6444C2.47761 11.7375 2.54078 11.829 2.60614 11.9188C3.01761 12.4842 3.51582 12.9824 4.08121 13.3939C4.17101 13.4593 4.26251 13.5224 4.35562 13.5833C4.44878 13.6443 4.54355 13.7029 4.63986 13.7592ZM1.55115 9.69666L2.17657 9.59837L2.07307 8.93978C2.02501 8.63399 2 8.32017 2 8.00004C2 7.67992 2.02501 7.36609 2.07307 7.0603L2.17657 6.40171L1.55115 6.30343C1.52296 6.41085 1.49739 6.51933 1.4745 6.62881C1.45184 6.73719 1.43181 6.84655 1.41449 6.9568C1.36107 7.2967 1.33334 7.64513 1.33334 8.00004C1.33334 8.35495 1.36107 8.70338 1.41449 9.04328C1.43181 9.15353 1.45184 9.26289 1.4745 9.37128C1.49739 9.48075 1.52296 9.58923 1.55115 9.69666ZM2.24081 4.6399L2.75287 5.01257L3.14516 4.47354C3.51569 3.96443 3.96439 3.51573 4.47351 3.1452L5.01253 2.75291L4.63986 2.24084C4.54355 2.29716 4.44878 2.35582 4.35562 2.41675C4.26251 2.47765 4.17101 2.54082 4.08121 2.60617C3.51582 3.01765 3.01761 3.51586 2.60614 4.08125C2.54078 4.17105 2.47761 4.26255 2.41671 4.35566C2.35578 4.44881 2.29712 4.54359 2.24081 4.6399ZM6.30339 1.55119L6.40168 2.17661L7.06026 2.07311C7.36605 2.02505 7.67988 2.00004 8 2.00004C8.32013 2.00004 8.63396 2.02505 8.93975 2.07311L9.59833 2.17661L9.69662 1.55119C9.58919 1.523 9.48071 1.49743 9.37124 1.47454C9.26285 1.45188 9.1535 1.43185 9.04325 1.41452C8.70334 1.36111 8.35491 1.33337 8 1.33337C7.64509 1.33337 7.29666 1.36111 6.95676 1.41452C6.84651 1.43185 6.73715 1.45188 6.62877 1.47454C6.5193 1.49743 6.41081 1.523 6.30339 1.55119ZM11.3601 2.24084L10.9875 2.75291L11.5265 3.1452C12.0356 3.51573 12.4843 3.96443 12.8548 4.47354L13.2471 5.01257L13.7592 4.6399C13.7029 4.54359 13.6442 4.44881 13.5833 4.35566C13.5224 4.26255 13.4592 4.17105 13.3939 4.08125C12.9824 3.51586 12.4842 3.01765 11.9188 2.60617C11.829 2.54082 11.7375 2.47765 11.6444 2.41675C11.5512 2.35582 11.4565 2.29716 11.3601 2.24084Z" fill="#DE0075"/>
<path fill-rule="evenodd" clip-rule="evenodd" d="M3.99999 10.0045L10.0045 3.99997L10.4625 4.45789L4.45791 10.4624L3.99999 10.0045Z" fill="#DE0075"/>
<path fill-rule="evenodd" clip-rule="evenodd" d="M5.50113 11.5057L11.5057 5.50119L11.9636 5.95911L5.95904 11.9637L5.50113 11.5057Z" fill="#DE0075"/>
<path fill-rule="evenodd" clip-rule="evenodd" d="M8.53981 11.542L11.5421 8.53977L12 8.99768L8.99772 12L8.53981 11.542Z" fill="#DE0075"/>
<path fill-rule="evenodd" clip-rule="evenodd" d="M4.0364 7.03875L7.03868 4.03647L7.49659 4.49438L4.49431 7.49666L4.0364 7.03875Z" fill="#DE0075"/>
</svg>
