<svg width="41" height="40" viewBox="0 0 41 40" fill="none" xmlns="http://www.w3.org/2000/svg">
<mask id="mask0_2882_11268" style="mask-type:alpha" maskUnits="userSpaceOnUse" x="1" y="1" width="38" height="38">
<ellipse cx="20" cy="19.9998" rx="18.3333" ry="18.3333" fill="#D9D9D9"/>
</mask>
<g mask="url(#mask0_2882_11268)">
<path d="M20.0103 0.303223C11.7855 0.303223 9.38002 0.311708 8.91245 0.350495C7.22457 0.490798 6.17427 0.756556 5.03002 1.32625C4.14821 1.76413 3.45275 2.27171 2.76639 2.98322C1.51639 4.2808 0.758812 5.87716 0.484569 7.77474C0.351236 8.69595 0.312448 8.88383 0.304569 13.5893C0.301539 15.1578 0.304569 17.222 0.304569 19.9908C0.304569 28.209 0.31366 30.612 0.353054 31.0787C0.489418 32.7211 0.746994 33.7544 1.29245 34.8847C2.33487 37.0484 4.32578 38.6726 6.67124 39.2787C7.48336 39.4878 8.38033 39.6029 9.53184 39.6575C10.0197 39.6787 14.9924 39.6938 19.9682 39.6938C24.944 39.6938 29.9197 39.6878 30.3955 39.6635C31.7288 39.6008 32.5031 39.4969 33.3591 39.2756C35.7197 38.6666 37.6743 37.0666 38.7379 34.8726C39.2728 33.7696 39.544 32.6969 39.6667 31.1402C39.6934 30.8008 39.7046 25.3896 39.7046 19.9856C39.7046 14.5808 39.6925 9.17959 39.6658 8.84019C39.5415 7.25837 39.2703 6.19474 38.7182 5.0705C38.2652 4.15019 37.7621 3.46292 37.0318 2.76019C35.7285 1.51534 34.1346 0.757768 32.2352 0.483829C31.3149 0.350798 31.1315 0.311404 26.4224 0.303223H20.0103Z" fill="url(#paint0_radial_2882_11268)"/>
<path d="M20.0103 0.303223C11.7855 0.303223 9.38002 0.311708 8.91245 0.350495C7.22457 0.490798 6.17427 0.756556 5.03002 1.32625C4.14821 1.76413 3.45275 2.27171 2.76639 2.98322C1.51639 4.2808 0.758812 5.87716 0.484569 7.77474C0.351236 8.69595 0.312448 8.88383 0.304569 13.5893C0.301539 15.1578 0.304569 17.222 0.304569 19.9908C0.304569 28.209 0.31366 30.612 0.353054 31.0787C0.489418 32.7211 0.746994 33.7544 1.29245 34.8847C2.33487 37.0484 4.32578 38.6726 6.67124 39.2787C7.48336 39.4878 8.38033 39.6029 9.53184 39.6575C10.0197 39.6787 14.9924 39.6938 19.9682 39.6938C24.944 39.6938 29.9197 39.6878 30.3955 39.6635C31.7288 39.6008 32.5031 39.4969 33.3591 39.2756C35.7197 38.6666 37.6743 37.0666 38.7379 34.8726C39.2728 33.7696 39.544 32.6969 39.6667 31.1402C39.6934 30.8008 39.7046 25.3896 39.7046 19.9856C39.7046 14.5808 39.6925 9.17959 39.6658 8.84019C39.5415 7.25837 39.2703 6.19474 38.7182 5.0705C38.2652 4.15019 37.7621 3.46292 37.0318 2.76019C35.7285 1.51534 34.1346 0.757768 32.2352 0.483829C31.3149 0.350798 31.1315 0.311404 26.4224 0.303223H20.0103Z" fill="url(#paint1_radial_2882_11268)"/>
<path d="M20.0011 8.3335C16.8326 8.3335 16.435 8.34735 15.1905 8.40398C13.9485 8.46086 13.1007 8.65749 12.3589 8.946C11.5916 9.24398 10.9407 9.64259 10.2922 10.2913C9.64321 10.9398 9.2446 11.5907 8.94564 12.3578C8.6564 13.0998 8.45952 13.9478 8.40362 15.1894C8.34796 16.4338 8.33337 16.8317 8.33337 20.0002C8.33337 23.1686 8.34747 23.5651 8.40386 24.8095C8.46098 26.0515 8.65761 26.8993 8.94588 27.6411C9.24411 28.4084 9.64273 29.0593 10.2915 29.7078C10.9397 30.3568 11.5906 30.7563 12.3574 31.0543C13.0997 31.3428 13.9478 31.5395 15.1896 31.5963C16.434 31.653 16.8314 31.6668 19.9997 31.6668C23.1684 31.6668 23.5649 31.653 24.8093 31.5963C26.0513 31.5395 26.9001 31.3428 27.6424 31.0543C28.4095 30.7563 29.0594 30.3568 29.7077 29.7078C30.3566 29.0593 30.7552 28.4084 31.0542 27.6413C31.341 26.8993 31.5379 26.0513 31.5962 24.8097C31.6521 23.5653 31.6667 23.1686 31.6667 20.0002C31.6667 16.8317 31.6521 16.4341 31.5962 15.1896C31.5379 13.9476 31.341 13.0998 31.0542 12.358C30.7552 11.5907 30.3566 10.9398 29.7077 10.2913C29.0587 9.64235 28.4097 9.24374 27.6417 8.946C26.8979 8.65749 26.0496 8.46086 24.8076 8.40398C23.5632 8.34735 23.167 8.3335 19.9975 8.3335H20.0011ZM18.9545 10.4359C19.2652 10.4354 19.6118 10.4359 20.0011 10.4359C23.1162 10.4359 23.4854 10.4471 24.7155 10.503C25.853 10.555 26.4704 10.7451 26.8816 10.9048C27.4261 11.1162 27.8142 11.369 28.2223 11.7774C28.6307 12.1857 28.8835 12.5746 29.0954 13.119C29.2551 13.5298 29.4454 14.1471 29.4972 15.2846C29.5531 16.5145 29.5652 16.8839 29.5652 19.9975C29.5652 23.111 29.5531 23.4805 29.4972 24.7103C29.4452 25.8478 29.2551 26.4652 29.0954 26.876C28.8839 27.4204 28.6307 27.8081 28.2223 28.2162C27.814 28.6245 27.4263 28.8773 26.8816 29.0887C26.4709 29.2492 25.853 29.4387 24.7155 29.4908C23.4856 29.5467 23.1162 29.5588 20.0011 29.5588C16.8859 29.5588 16.5167 29.5467 15.2868 29.4908C14.1493 29.4383 13.5319 29.2482 13.1204 29.0885C12.576 28.877 12.1871 28.6243 11.7787 28.2159C11.3704 27.8076 11.1176 27.4197 10.9057 26.875C10.746 26.4642 10.5557 25.8469 10.5039 24.7094C10.448 23.4795 10.4368 23.1101 10.4368 19.9946C10.4368 16.8791 10.448 16.5116 10.5039 15.2817C10.5559 14.1442 10.746 13.5269 10.9057 13.1156C11.1171 12.5712 11.3704 12.1823 11.7787 11.7739C12.1871 11.3656 12.576 11.1128 13.1204 10.9009C13.5317 10.7405 14.1493 10.5509 15.2868 10.4986C16.363 10.45 16.7801 10.4354 18.9545 10.433V10.4359ZM26.2288 12.3731C25.4558 12.3731 24.8288 12.9994 24.8288 13.7726C24.8288 14.5455 25.4558 15.1726 26.2288 15.1726C27.0017 15.1726 27.6288 14.5455 27.6288 13.7726C27.6288 12.9997 27.0017 12.3726 26.2288 12.3726V12.3731ZM20.0011 14.0088C16.6924 14.0088 14.0098 16.6914 14.0098 20.0002C14.0098 23.3089 16.6924 25.9903 20.0011 25.9903C23.3099 25.9903 25.9915 23.3089 25.9915 20.0002C25.9915 16.6914 23.3099 14.0088 20.0011 14.0088ZM20.0011 16.1113C22.1488 16.1113 23.8901 17.8523 23.8901 20.0002C23.8901 22.1478 22.1488 23.8891 20.0011 23.8891C17.8532 23.8891 16.1122 22.1478 16.1122 20.0002C16.1122 17.8523 17.8532 16.1113 20.0011 16.1113Z" fill="white"/>
</g>
<defs>
<radialGradient id="paint0_radial_2882_11268" cx="0" cy="0" r="1" gradientUnits="userSpaceOnUse" gradientTransform="translate(10.7693 42.7277) rotate(-90) scale(39.039 36.3192)">
<stop stop-color="#FFDD55"/>
<stop offset="0.1" stop-color="#FFDD55"/>
<stop offset="0.5" stop-color="#FF543E"/>
<stop offset="1" stop-color="#C837AB"/>
</radialGradient>
<radialGradient id="paint1_radial_2882_11268" cx="0" cy="0" r="1" gradientUnits="userSpaceOnUse" gradientTransform="translate(-6.29671 3.14086) rotate(78.6776) scale(17.4508 71.951)">
<stop stop-color="#3771C8"/>
<stop offset="0.128" stop-color="#3771C8"/>
<stop offset="1" stop-color="#6600FF" stop-opacity="0"/>
</radialGradient>
</defs>
</svg>
