<svg width="56" height="56" viewBox="0 0 56 56" fill="none" xmlns="http://www.w3.org/2000/svg">
<rect width="56" height="56" rx="28" fill="white"/>
<g clip-path="url(#clip0_2792_9522)">
<path d="M28 43.8334C36.7445 43.8334 43.8333 36.7446 43.8333 28.0001C43.8333 19.2556 36.7445 12.1667 28 12.1667C19.2555 12.1667 12.1667 19.2556 12.1667 28.0001C12.1667 36.7446 19.2555 43.8334 28 43.8334Z" fill="#FFEEFD"/>
<path d="M28 48C39.0457 48 48 39.0457 48 28C48 16.9543 39.0457 8 28 8C16.9543 8 8 16.9543 8 28C8 39.0457 16.9543 48 28 48ZM28 46.3333C17.8748 46.3333 9.66667 38.1252 9.66667 28C9.66667 17.8748 17.8748 9.66667 28 9.66667C38.1252 9.66667 46.3333 17.8748 46.3333 28C46.3333 38.1252 38.1252 46.3333 28 46.3333Z" fill="#DE0075"/>
<path d="M28 12.1667C28.4274 12.1667 28.7796 12.4884 28.8277 12.9029L28.8333 13.0001L28.834 18.0085C31.0229 18.0525 33.1473 18.2695 35.1382 18.642C34.756 17.2582 34.2877 15.9776 33.743 14.8338C33.5451 14.4183 33.7215 13.921 34.137 13.7231C34.5525 13.5252 35.0498 13.7016 35.2477 14.1171C35.9441 15.5794 36.521 17.2384 36.9637 19.036C38.7617 19.4791 40.4207 20.056 41.8829 20.7524C42.2985 20.9503 42.4749 21.4476 42.277 21.8631C42.0791 22.2786 41.5818 22.455 41.1663 22.2571C40.0225 21.7124 38.7419 21.2441 37.358 20.8615C37.7306 22.853 37.9476 24.9777 37.9916 27.1669L43 27.1667C43.4602 27.1667 43.8333 27.5398 43.8333 28.0001C43.8333 28.4603 43.4602 28.8334 43 28.8334L37.9916 28.8341C37.9476 31.023 37.7306 33.1473 37.3581 35.1382C38.7419 34.756 40.0225 34.2878 41.1663 33.743C41.5818 33.5451 42.0791 33.7215 42.277 34.1371C42.4749 34.5526 42.2985 35.0498 41.8829 35.2477C40.4207 35.9442 38.7617 36.5211 36.9641 36.9637C36.521 38.7618 35.9441 40.4208 35.2477 41.883C35.0498 42.2985 34.5525 42.4749 34.137 42.277C33.7215 42.0791 33.5451 41.5819 33.743 41.1663C34.2877 40.0226 34.756 38.742 35.1385 37.3581C33.1473 37.7307 31.0229 37.9477 28.834 37.9917L28.8333 43.0001C28.8333 43.4603 28.4602 43.8334 28 43.8334C27.5726 43.8334 27.2204 43.5117 27.1723 43.0973L27.1667 43.0001L27.1668 37.9917C24.9776 37.9477 22.853 37.7307 20.8619 37.3582C21.244 38.742 21.7123 40.0226 22.2571 41.1663C22.455 41.5819 22.2785 42.0791 21.863 42.277C21.4475 42.4749 20.9502 42.2985 20.7523 41.883C20.0559 40.4208 19.479 38.7618 19.0364 36.9642C17.2383 36.5211 15.5793 35.9442 14.1171 35.2477C13.7016 35.0498 13.5251 34.5526 13.7231 34.1371C13.921 33.7215 14.4182 33.5451 14.8337 33.743C15.9775 34.2878 17.2581 34.756 18.642 35.1386C18.2694 33.1474 18.0524 31.023 18.0084 28.8341L13 28.8334C12.5398 28.8334 12.1667 28.4603 12.1667 28.0001C12.1667 27.5398 12.5398 27.1667 13 27.1667L18.0084 27.1669C18.0524 24.9777 18.2694 22.8531 18.6419 20.8619C17.2581 21.2441 15.9775 21.7124 14.8337 22.2571C14.4182 22.455 13.921 22.2786 13.7231 21.8631C13.5251 21.4476 13.7016 20.9503 14.1171 20.7524C15.5793 20.056 17.2383 19.4791 19.0359 19.0364C19.479 17.2384 20.0559 15.5794 20.7523 14.1171C20.9502 13.7016 21.4475 13.5252 21.863 13.7231C22.2785 13.921 22.455 14.4183 22.2571 14.8338C21.7123 15.9776 21.2441 17.2582 20.8615 18.642C22.853 18.2694 24.9776 18.0525 27.1668 18.0084L27.1667 13.0001C27.1667 12.5398 27.5398 12.1667 28 12.1667ZM27.1658 28.8334L19.6754 28.8345C19.725 31.198 19.9847 33.4769 20.4276 35.5727C22.5235 36.0155 24.8026 36.2751 27.1664 36.3247L27.1658 28.8334ZM36.3246 28.8345L28.8342 28.8334L28.8344 36.3247C31.198 36.2751 33.4768 36.0154 35.5727 35.5725C36.0154 33.4768 36.275 31.198 36.3246 28.8345ZM27.1664 19.6755C24.8026 19.725 22.5235 19.9847 20.4273 20.4277C19.9846 22.5236 19.725 24.8027 19.6754 27.1665L27.1658 27.1667L27.1664 19.6755ZM28.8344 19.6755L28.8342 27.1667L36.3246 27.1665C36.275 24.8027 36.0154 22.5235 35.5724 20.4274C33.4768 19.9847 31.198 19.7251 28.8344 19.6755Z" fill="#DE0075"/>
</g>
<defs>
<clipPath id="clip0_2792_9522">
<rect width="40" height="40" fill="white" transform="translate(8 8)"/>
</clipPath>
</defs>
</svg>
