<svg width="56" height="56" viewBox="0 0 56 56" fill="none" xmlns="http://www.w3.org/2000/svg">
<rect width="56" height="56" rx="28" fill="white"/>
<g clip-path="url(#clip0_3290_57693)">
<path fill-rule="evenodd" clip-rule="evenodd" d="M28.0001 12.1667C36.7446 12.1667 43.8334 19.2555 43.8334 28C43.8334 36.7445 36.7446 43.8333 28.0001 43.8333C19.2556 43.8333 12.1667 36.7445 12.1667 28C12.1667 19.2555 19.2556 12.1667 28.0001 12.1667ZM28.6583 18.1539C27.9216 17.7904 27.0296 18.0928 26.666 18.8295L24.9009 22.4061C24.5758 23.0646 23.9476 23.5211 23.2208 23.6267L19.2737 24.2002C18.95 24.2472 18.6508 24.3997 18.4224 24.634C17.849 25.2222 17.861 26.164 18.4493 26.7374L21.3054 29.5214C21.8313 30.034 22.0713 30.7726 21.9472 31.4964L21.2729 35.4274C21.2176 35.7498 21.2701 36.0815 21.4224 36.371C21.8047 37.0982 22.7041 37.3778 23.4313 36.9955L26.9617 35.1395C27.6117 34.7978 28.3883 34.7978 29.0383 35.1395L32.5687 36.9955C32.8582 37.1477 33.1899 37.2003 33.5124 37.145C34.3221 37.0061 34.8659 36.2371 34.7271 35.4274L34.0528 31.4964C33.9287 30.7726 34.1686 30.034 34.6945 29.5214L37.5507 26.7374C37.7849 26.5091 37.9374 26.2099 37.9844 25.8862C38.1026 25.0732 37.5393 24.3183 36.7262 24.2002L32.7792 23.6267C32.0524 23.5211 31.4241 23.0646 31.0991 22.4061L29.3339 18.8295C29.1891 18.5362 28.9517 18.2987 28.6583 18.1539Z" fill="#FFEEFD"/>
<path d="M28 48C39.0457 48 48 39.0457 48 28C48 16.9543 39.0457 8 28 8C16.9543 8 8 16.9543 8 28C8 39.0457 16.9543 48 28 48ZM28 46.3333C17.8748 46.3333 9.66667 38.1252 9.66667 28C9.66667 17.8748 17.8748 9.66667 28 9.66667C38.1252 9.66667 46.3333 17.8748 46.3333 28C46.3333 38.1252 38.1252 46.3333 28 46.3333Z" fill="#DE0075"/>
<path d="M27.3494 35.8771L23.8191 37.7331C22.6845 38.3296 21.2813 37.8934 20.6848 36.7588C20.4473 36.3071 20.3653 35.7896 20.4516 35.2865L21.1258 31.3555C21.2036 30.902 21.0532 30.4393 20.7238 30.1182L17.8676 27.3342C16.9498 26.4395 16.931 24.9701 17.8257 24.0523C18.182 23.6868 18.6488 23.4489 19.1539 23.3755L23.101 22.802C23.5563 22.7358 23.9499 22.4499 24.1536 22.0373L25.9188 18.4607C26.486 17.3113 27.8777 16.8394 29.0271 17.4067C29.4848 17.6325 29.8553 18.003 30.0812 18.4607L31.8464 22.0373C32.05 22.4499 32.4437 22.7358 32.899 22.802L36.8461 23.3755C38.1145 23.5598 38.9934 24.7375 38.8091 26.006C38.7357 26.5111 38.4978 26.9779 38.1323 27.3342L35.2762 30.1182C34.9467 30.4393 34.7964 30.902 34.8742 31.3555L35.5484 35.2865C35.7651 36.5498 34.9166 37.7496 33.6532 37.9663C33.1502 38.0526 32.6327 37.9706 32.1809 37.7331L28.6505 35.8771C28.2433 35.663 27.7567 35.663 27.3494 35.8771ZM26.5739 34.4019C27.4667 33.9325 28.5333 33.9325 29.4261 34.4019L32.9565 36.2579C33.0838 36.3248 33.2297 36.3479 33.3715 36.3236C33.7276 36.2625 33.9668 35.9244 33.9057 35.5683L33.2315 31.6373C33.061 30.6431 33.3906 29.6287 34.1129 28.9247L36.969 26.1407C37.072 26.0403 37.1391 25.9087 37.1598 25.7663C37.2117 25.4088 36.964 25.0768 36.6064 25.0249L32.6593 24.4513C31.6612 24.3063 30.7982 23.6794 30.3518 22.7749L28.5867 19.1983C28.523 19.0693 28.4186 18.9649 28.2895 18.9012C27.9655 18.7413 27.5732 18.8743 27.4133 19.1983L25.6481 22.7749C25.2017 23.6794 24.3388 24.3063 23.3406 24.4513L19.3936 25.0249C19.2512 25.0456 19.1196 25.1126 19.0192 25.2156C18.767 25.4744 18.7723 25.8885 19.031 26.1407L21.8871 28.9247C22.6094 29.6287 22.939 30.6431 22.7685 31.6373L22.0943 35.5683C22.0699 35.7101 22.093 35.8559 22.16 35.9833C22.3281 36.3031 22.7237 36.426 23.0435 36.2579L26.5739 34.4019Z" fill="#DE0075"/>
</g>
<defs>
<clipPath id="clip0_3290_57693">
<rect width="40" height="40" fill="white" transform="translate(8 8)"/>
</clipPath>
</defs>
</svg>
