<svg width="56" height="56" viewBox="0 0 56 56" fill="none" xmlns="http://www.w3.org/2000/svg">
<rect width="56" height="56" rx="28" fill="white"/>
<path fill-rule="evenodd" clip-rule="evenodd" d="M37.5834 15.5C41.0352 15.5 43.8334 18.2982 43.8334 21.75C43.8334 27.166 40.8675 32.7174 35.802 37.1608C33.2669 39.3845 29.7125 41.3333 28.0001 41.3333C26.2877 41.3333 22.7332 39.3845 20.1982 37.1608C15.1327 32.7174 12.1667 27.166 12.1667 21.75C12.1667 18.2982 14.965 15.5 18.4167 15.5C21.8685 15.5 24.6667 18.2982 24.6667 21.75C24.6667 26.1944 31.3334 26.1944 31.3334 21.75C31.3334 18.2982 34.1316 15.5 37.5834 15.5ZM16.1904 19.5237C14.8887 20.8254 14.6249 22.6722 15.6012 23.6485C16.5775 24.6248 18.4242 24.361 19.726 23.0592C21.0277 21.7575 21.2915 19.9107 20.3152 18.9344C19.3389 17.9581 17.4922 18.2219 16.1904 19.5237Z" fill="#FFEEFD"/>
<path d="M37.5833 11.3333C43.3363 11.3333 48 15.997 48 21.75C48 28.4776 44.455 35.1129 38.5495 40.2931C35.317 43.1286 30.992 45.5 28 45.5C25.008 45.5 20.6829 43.1286 17.4505 40.2931C11.545 35.1129 8 28.4776 8 21.75C8 15.997 12.6637 11.3333 18.4167 11.3333C22.718 11.3333 26.4105 13.9405 28 17.6607C29.5895 13.9405 33.282 11.3333 37.5833 11.3333ZM27.1667 21.75C27.1667 16.9175 23.2492 13 18.4167 13C13.5842 13 9.66667 16.9175 9.66667 21.75C9.66667 27.9529 12.98 34.1547 18.5495 39.0402C21.503 41.631 25.5199 43.8333 28 43.8333C30.4801 43.8333 34.497 41.631 37.4505 39.0402C43.02 34.1547 46.3333 27.9529 46.3333 21.75C46.3333 16.9175 42.4158 13 37.5833 13C32.7508 13 28.8333 16.9175 28.8333 21.75C28.8333 22.8611 27.1667 22.8611 27.1667 21.75Z" fill="#DE0075"/>
<path d="M15.0119 24.2377C13.6673 22.8931 14.0048 20.5308 15.6012 18.9344C17.1976 17.3381 19.5599 17.0006 20.9045 18.3452C22.2491 19.6898 21.9116 22.0521 20.3152 23.6485C18.7188 25.2449 16.3565 25.5823 15.0119 24.2377ZM16.1904 23.0592C16.7985 23.6673 18.1296 23.4771 19.1367 22.47C20.1438 21.4629 20.334 20.1317 19.726 19.5237C19.1179 18.9157 17.7868 19.1058 16.7797 20.113C15.7726 21.1201 15.5824 22.4512 16.1904 23.0592Z" fill="#DE0075"/>
</svg>
