<svg width="56" height="56" viewBox="0 0 56 56" fill="none" xmlns="http://www.w3.org/2000/svg">
<rect width="56" height="56" rx="28" fill="white"/>
<path d="M47.9347 27.6765C48.0218 27.8833 48.0218 28.1165 47.9347 28.3233C43.3709 39.1623 36.7078 44.6666 28 44.6666C19.2922 44.6666 12.6291 39.1623 8.0653 28.3233C7.97823 28.1165 7.97823 27.8833 8.0653 27.6765C12.6291 16.8376 19.2922 11.3333 28 11.3333C36.7078 11.3333 43.3709 16.8376 47.9347 27.6765ZM28 12.9999C20.1251 12.9999 14.0557 17.9451 9.73885 27.9999C14.0557 38.0547 20.1251 42.9999 28 42.9999C35.8749 42.9999 41.9443 38.0547 46.2611 27.9999C41.9443 17.9451 35.8749 12.9999 28 12.9999Z" fill="#DE0075"/>
<path fill-rule="evenodd" clip-rule="evenodd" d="M28 16.3333C34.4433 16.3333 39.6666 21.5566 39.6666 27.9999C39.6666 34.4432 34.4433 39.6666 28 39.6666C21.5567 39.6666 16.3333 34.4432 16.3333 27.9999C16.3333 21.5566 21.5567 16.3333 28 16.3333ZM28 22.9999C25.2386 22.9999 23 25.2385 23 27.9999C23 30.7613 25.2386 32.9999 28 32.9999C30.7614 32.9999 33 30.7613 33 27.9999C33 25.2385 30.7614 22.9999 28 22.9999Z" fill="#FFEEFD"/>
<path d="M28 33.8332C31.2217 33.8332 33.8334 31.2215 33.8334 27.9998C33.8334 24.7782 31.2217 22.1665 28 22.1665C24.7784 22.1665 22.1667 24.7782 22.1667 27.9998C22.1667 31.2215 24.7784 33.8332 28 33.8332ZM28 32.1665C25.6988 32.1665 23.8334 30.301 23.8334 27.9998C23.8334 25.6987 25.6988 23.8332 28 23.8332C30.3012 23.8332 32.1667 25.6987 32.1667 27.9998C32.1667 30.301 30.3012 32.1665 28 32.1665Z" fill="#DE0075"/>
</svg>
