<svg width="56" height="56" viewBox="0 0 56 56" fill="none" xmlns="http://www.w3.org/2000/svg">
<rect width="56" height="56" rx="28" fill="white"/>
<g clip-path="url(#clip0_2792_9526)">
<path d="M28 8C36.2843 8 43 14.7157 43 23C43 26.8741 41.5313 30.4052 39.1203 33.0669L45.3174 40.8128C45.7539 41.3584 45.3654 42.1667 44.6667 42.1667H38.5495L36.266 47.4949C36.0053 48.1032 35.1737 48.1795 34.8066 47.6289L28.3841 37.9952C28.2565 37.9984 28.1284 38 28 38C27.8714 38 27.7432 37.9984 27.6154 37.9952L21.1934 47.6289C20.8467 48.149 20.0857 48.1097 19.7826 47.5914L19.7341 47.4949L17.4505 42.1667H11.3333C10.6663 42.1667 10.2821 41.4302 10.6282 40.8887L10.6826 40.8128L16.8797 33.0669C14.4687 30.4052 13 26.8741 13 23C13 14.7157 19.7157 8 28 8ZM18.0719 34.2445L13.0672 40.5H18C18.3 40.5 18.5741 40.6609 18.7216 40.9165L18.766 41.0051L20.66 45.4244L25.7237 37.8284C22.8142 37.3855 20.1793 36.1066 18.0719 34.2445ZM30.2759 37.8285L35.34 45.4244L37.2341 41.0051C37.3654 40.6987 37.6667 40.5 38 40.5H42.9328L37.9284 34.2442C35.8209 36.1065 33.1858 37.3855 30.2759 37.8285ZM28 9.66667C20.6362 9.66667 14.6667 15.6362 14.6667 23C14.6667 26.495 16.0114 29.6759 18.2117 32.0536L18.4349 32.289L18.5206 32.3493C18.5967 32.4102 18.6593 32.4816 18.7079 32.5599C21.1085 34.8958 24.3864 36.3333 28 36.3333C31.6144 36.3333 34.8928 34.8952 37.2944 32.5599C37.3412 32.4811 37.4036 32.4099 37.4794 32.3493C37.5068 32.3274 37.5352 32.3075 37.5643 32.2895C39.8975 29.8877 41.3333 26.6115 41.3333 23C41.3333 15.6362 35.3638 9.66667 28 9.66667Z" fill="#DE0075"/>
<path fill-rule="evenodd" clip-rule="evenodd" d="M28 12.1667C33.9831 12.1667 38.8334 17.017 38.8334 23.0001C38.8334 28.9832 33.9831 33.8334 28 33.8334C22.0169 33.8334 17.1667 28.9832 17.1667 23.0001C17.1667 17.017 22.0169 12.1667 28 12.1667ZM28 18.0001C25.2386 18.0001 23 20.2387 23 23.0001C23 25.7615 25.2386 28.0001 28 28.0001C30.7614 28.0001 33 25.7615 33 23.0001C33 20.2387 30.7614 18.0001 28 18.0001Z" fill="#FFEEFD"/>
<path d="M28 28.8334C31.2217 28.8334 33.8334 26.2217 33.8334 23.0001C33.8334 19.7784 31.2217 17.1667 28 17.1667C24.7784 17.1667 22.1667 19.7784 22.1667 23.0001C22.1667 26.2217 24.7784 28.8334 28 28.8334ZM28 27.1667C25.6988 27.1667 23.8334 25.3013 23.8334 23.0001C23.8334 20.6989 25.6988 18.8334 28 18.8334C30.3012 18.8334 32.1667 20.6989 32.1667 23.0001C32.1667 25.3013 30.3012 27.1667 28 27.1667Z" fill="#DE0075"/>
</g>
<defs>
<clipPath id="clip0_2792_9526">
<rect width="40" height="40" fill="white" transform="translate(8 8)"/>
</clipPath>
</defs>
</svg>
