<svg width="56" height="56" viewBox="0 0 56 56" fill="none" xmlns="http://www.w3.org/2000/svg">
<rect width="56" height="56" rx="28" fill="white"/>
<g clip-path="url(#clip0_2792_9530)">
<path d="M28 48C39.0457 48 48 39.0457 48 28C48 16.9543 39.0457 8 28 8C16.9543 8 8 16.9543 8 28C8 39.0457 16.9543 48 28 48ZM28 46.3333C17.8748 46.3333 9.66667 38.1252 9.66667 28C9.66667 17.8748 17.8748 9.66667 28 9.66667C38.1252 9.66667 46.3333 17.8748 46.3333 28C46.3333 38.1252 38.1252 46.3333 28 46.3333Z" fill="#DE0075"/>
<path d="M28 43.8334C36.7445 43.8334 43.8334 36.7446 43.8334 28.0001C43.8334 19.2556 36.7445 12.1667 28 12.1667C19.2555 12.1667 12.1667 19.2556 12.1667 28.0001C12.1667 36.7446 19.2555 43.8334 28 43.8334Z" fill="#FFEEFD"/>
<path d="M21.0893 27.4108C20.7638 27.0854 20.2362 27.0854 19.9108 27.4108C19.5853 27.7363 19.5853 28.2639 19.9108 28.5893L24.9108 33.5893C25.2362 33.9148 25.7638 33.9148 26.0893 33.5893L36.0893 23.5893C36.4147 23.2639 36.4147 22.7363 36.0893 22.4108C35.7638 22.0854 35.2362 22.0854 34.9108 22.4108L25.5 31.8216L21.0893 27.4108Z" fill="#DE0075"/>
</g>
<defs>
<clipPath id="clip0_2792_9530">
<rect width="40" height="40" fill="white" transform="translate(8 8)"/>
</clipPath>
</defs>
</svg>
