<svg width="16" height="16" viewBox="0 0 16 16" fill="none" xmlns="http://www.w3.org/2000/svg">
<path fill-rule="evenodd" clip-rule="evenodd" d="M7.57567 2.19971C7.06465 2.8174 6.21872 3.04407 5.46732 2.76464C5.14346 2.64421 4.78999 2.84829 4.73236 3.18897C4.59865 3.97942 3.97938 4.59869 3.18893 4.7324C2.84825 4.79002 2.64417 5.1435 2.7646 5.46735C3.04403 6.21876 2.81736 7.06469 2.19967 7.57571C1.93345 7.79596 1.93345 8.20412 2.19967 8.42437C2.81736 8.93539 3.04403 9.78132 2.7646 10.5327C2.64417 10.8566 2.84825 11.2101 3.18893 11.2677C3.97938 11.4014 4.59865 12.0207 4.73236 12.8111C4.78999 13.1518 5.14346 13.3559 5.46732 13.2354C6.21872 12.956 7.06465 13.1827 7.57567 13.8004C7.79592 14.0666 8.20408 14.0666 8.42433 13.8004C8.93535 13.1827 9.78129 12.956 10.5327 13.2354C10.8565 13.3559 11.21 13.1518 11.2676 12.8111C11.4014 12.0207 12.0206 11.4014 12.8111 11.2677C13.1518 11.2101 13.3558 10.8566 13.2354 10.5327C12.956 9.78132 13.1826 8.93539 13.8003 8.42437C14.0666 8.20412 14.0666 7.79596 13.8003 7.57571C13.1826 7.06469 12.956 6.21876 13.2354 5.46735C13.3558 5.1435 13.1518 4.79002 12.8111 4.7324C12.0206 4.59869 11.4014 3.97942 11.2676 3.18897C11.21 2.84829 10.8565 2.64421 10.5327 2.76464C9.78129 3.04407 8.93535 2.8174 8.42433 2.19971C8.20408 1.93348 7.79592 1.93348 7.57567 2.19971ZM8.938 1.77475C8.45113 1.18625 7.54888 1.18625 7.06201 1.77475C6.73181 2.17387 6.18521 2.32034 5.69969 2.13978C4.98379 1.87356 4.20242 2.32469 4.07503 3.07778C3.98863 3.58853 3.58849 3.98867 3.07774 4.07507C2.32465 4.20246 1.87352 4.98383 2.13975 5.69972C2.3203 6.18524 2.17384 6.73185 1.77471 7.06204C1.18621 7.54891 1.18621 8.45117 1.77471 8.93804C2.17384 9.26823 2.3203 9.81484 2.13975 10.3004C1.87352 11.0163 2.32465 11.7976 3.07774 11.925C3.58849 12.0114 3.98863 12.4116 4.07503 12.9223C4.20242 13.6754 4.98379 14.1265 5.69969 13.8603C6.18521 13.6797 6.73181 13.8262 7.06201 14.2253C7.54888 14.8138 8.45113 14.8138 8.938 14.2253C9.2682 13.8262 9.8148 13.6797 10.3003 13.8603C11.0162 14.1265 11.7976 13.6754 11.925 12.9223C12.0114 12.4116 12.4115 12.0114 12.9223 11.925C13.6754 11.7976 14.1265 11.0163 13.8603 10.3004C13.6797 9.81484 13.8262 9.26823 14.2253 8.93804C14.8138 8.45117 14.8138 7.54891 14.2253 7.06204C13.8262 6.73185 13.6797 6.18525 13.8603 5.69972C14.1265 4.98383 13.6754 4.20246 12.9223 4.07507C12.4115 3.98867 12.0114 3.58853 11.925 3.07778C11.7976 2.32469 11.0162 1.87356 10.3003 2.13978C9.8148 2.32034 9.2682 2.17387 8.938 1.77475Z" fill="#DE0075"/>
<path fill-rule="evenodd" clip-rule="evenodd" d="M11.5586 6.57904L7.33296 10.4525L4.67673 8.00964L5.12801 7.51894L7.3337 9.54746L11.1081 6.08761L11.5586 6.57904Z" fill="#DE0075"/>
</svg>
