<svg width="16" height="16" viewBox="0 0 16 16" fill="none" xmlns="http://www.w3.org/2000/svg">
<path fill-rule="evenodd" clip-rule="evenodd" d="M11.3935 2.9566C10.5531 2.37876 9.35529 1.99996 8 1.99996C6.6447 1.99996 5.44694 2.37876 4.60645 2.9566C3.763 3.53646 3.33333 4.27017 3.33333 4.99996C3.33333 5.72975 3.763 6.46346 4.60645 7.04332C5.44694 7.62116 6.6447 7.99996 8 7.99996C9.35529 7.99996 10.5531 7.62116 11.3935 7.04332C12.237 6.46345 12.6667 5.72974 12.6667 4.99996C12.6667 4.27017 12.237 3.53646 11.3935 2.9566ZM13.3333 4.99996C13.3333 2.97491 10.9455 1.33329 8 1.33329C5.05448 1.33329 2.66666 2.97492 2.66666 4.99996C2.66666 7.025 5.05448 8.66663 8 8.66663C10.9455 8.66663 13.3333 7.025 13.3333 4.99996Z" fill="#DE0075"/>
<path fill-rule="evenodd" clip-rule="evenodd" d="M9.58748 4.32014C9.21565 4.13423 8.65533 4 8 4C7.34468 4 6.78435 4.13423 6.41253 4.32014C6.2268 4.41301 6.11268 4.50635 6.05188 4.57823C6.02278 4.61263 6.0099 4.6373 6.00451 4.65046C6.00185 4.65696 6.00083 4.66107 6.00043 4.66304C6.00005 4.66493 6 4.66596 6 4.66667C6 4.66737 6.00005 4.66841 6.00043 4.67029C6.00083 4.67226 6.00185 4.67638 6.00451 4.68287C6.0099 4.69603 6.02278 4.7207 6.05188 4.7551C6.11268 4.82698 6.2268 4.92033 6.41253 5.01319C6.78435 5.1991 7.34468 5.33333 8 5.33333C8.65533 5.33333 9.21565 5.1991 9.58748 5.01319C9.77321 4.92033 9.88732 4.82698 9.94813 4.7551C9.97722 4.7207 9.99011 4.69603 9.9955 4.68287C9.99815 4.67638 9.99918 4.67226 9.99958 4.67029C9.99996 4.66841 10 4.66737 10 4.66667C10 4.66596 9.99996 4.66493 9.99958 4.66304C9.99918 4.66107 9.99815 4.65696 9.9955 4.65046C9.99011 4.6373 9.97722 4.61263 9.94813 4.57823C9.88732 4.50635 9.77321 4.41301 9.58748 4.32014ZM10.6667 4.66667C10.6667 3.93029 9.47276 3.33333 8 3.33333C6.52724 3.33333 5.33334 3.93029 5.33334 4.66667C5.33334 5.40305 6.52724 6 8 6C9.47276 6 10.6667 5.40305 10.6667 4.66667Z" fill="#DE0075"/>
<path fill-rule="evenodd" clip-rule="evenodd" d="M11.3935 13.0433C12.237 12.4635 12.6667 11.7297 12.6667 11L12.6667 4.99996C12.6667 4.27017 12.237 3.53646 11.3935 2.95659C10.5531 2.37876 9.35529 1.99996 8 1.99996C6.6447 1.99996 5.44694 2.37876 4.60645 2.95659C3.763 3.53646 3.33333 4.27017 3.33333 4.99996L3.33333 11C3.33333 11.7297 3.763 12.4635 4.60645 13.0433C5.44694 13.6212 6.6447 14 8 14C9.35529 14 10.5531 13.6212 11.3935 13.0433ZM8 14.6666C10.9455 14.6666 13.3333 13.025 13.3333 11L13.3333 4.99996C13.3333 2.97491 10.9455 1.33329 8 1.33329C5.05448 1.33329 2.66666 2.97491 2.66666 4.99996L2.66666 11C2.66666 13.025 5.05448 14.6666 8 14.6666Z" fill="#DE0075"/>
</svg>
