<svg width="40" height="40" viewBox="0 0 40 40" fill="none" xmlns="http://www.w3.org/2000/svg">
<path d="M20 38.3332C30.1252 38.3332 38.3334 30.1251 38.3334 19.9998C38.3334 9.87462 30.1252 1.6665 20 1.6665C9.8748 1.6665 1.66669 9.87462 1.66669 19.9998C1.66669 30.1251 9.8748 38.3332 20 38.3332Z" fill="url(#paint0_linear_2882_11266)"/>
<path fill-rule="evenodd" clip-rule="evenodd" d="M9.95569 19.8015C15.2985 17.4812 18.8552 15.9394 20.6412 15.1915C25.7245 13.0696 26.793 12.7033 27.48 12.688C27.6326 12.688 27.9685 12.7185 28.1974 12.9017C28.3806 13.0543 28.4264 13.2528 28.4569 13.4054C28.4875 13.5581 28.518 13.8787 28.4875 14.1229C28.2127 17.0233 27.022 24.0605 26.4114 27.2966C26.1519 28.6705 25.6482 29.1285 25.1597 29.1743C24.0911 29.2658 23.2821 28.4721 22.2593 27.8004C20.6412 26.7471 19.7406 26.0907 18.1683 25.0527C16.3517 23.862 17.5272 23.2056 18.5652 22.1371C18.84 21.8623 23.5263 17.5881 23.6179 17.2064C23.6332 17.1607 23.6332 16.9775 23.5263 16.8859C23.4195 16.7943 23.2668 16.8248 23.1447 16.8553C22.9768 16.8859 20.4123 18.5956 15.4206 21.9691C14.6879 22.4729 14.0315 22.7171 13.4361 22.7019C12.7797 22.6866 11.528 22.3355 10.5816 22.0302C9.43668 21.6638 8.52077 21.4654 8.5971 20.8243C8.64289 20.4884 9.10085 20.1526 9.95569 19.8015Z" fill="white"/>
<defs>
<linearGradient id="paint0_linear_2882_11266" x1="19.9848" y1="1.6665" x2="19.9848" y2="38.0431" gradientUnits="userSpaceOnUse">
<stop stop-color="#2AABEE"/>
<stop offset="1" stop-color="#229ED9"/>
</linearGradient>
</defs>
</svg>
